<?xml version="1.0" encoding="utf-8" ?>
<svg baseProfile="full" height="594mm" version="1.1" viewBox="0 0 841 594" width="841mm" xmlns="http://www.w3.org/2000/svg" xmlns:ev="http://www.w3.org/2001/xml-events" xmlns:xlink="http://www.w3.org/1999/xlink"><defs /><rect fill="white" height="594" width="841" x="0" y="0" /><rect fill="none" height="574" stroke="#000000" stroke-width="0.7" width="821" x="10" y="10" /><line stroke="#000000" stroke-width="0.25" x1="112.625" x2="112.625" y1="6" y2="10" /><line stroke="#000000" stroke-width="0.25" x1="112.625" x2="112.625" y1="584" y2="588" /><line stroke="#000000" stroke-width="0.25" x1="215.25" x2="215.25" y1="6" y2="10" /><line stroke="#000000" stroke-width="0.25" x1="215.25" x2="215.25" y1="584" y2="588" /><line stroke="#000000" stroke-width="0.25" x1="317.875" x2="317.875" y1="6" y2="10" /><line stroke="#000000" stroke-width="0.25" x1="317.875" x2="317.875" y1="584" y2="588" /><line stroke="#000000" stroke-width="0.25" x1="420.5" x2="420.5" y1="6" y2="10" /><line stroke="#000000" stroke-width="0.25" x1="420.5" x2="420.5" y1="584" y2="588" /><line stroke="#000000" stroke-width="0.25" x1="523.125" x2="523.125" y1="6" y2="10" /><line stroke="#000000" stroke-width="0.25" x1="523.125" x2="523.125" y1="584" y2="588" /><line stroke="#000000" stroke-width="0.25" x1="625.75" x2="625.75" y1="6" y2="10" /><line stroke="#000000" stroke-width="0.25" x1="625.75" x2="625.75" y1="584" y2="588" /><line stroke="#000000" stroke-width="0.25" x1="728.375" x2="728.375" y1="6" y2="10" /><line stroke="#000000" stroke-width="0.25" x1="728.375" x2="728.375" y1="584" y2="588" /><g fill="#000000" font-family="DejaVu Sans, Arial, sans-serif" font-size="3.0"><text text-anchor="middle" x="61.3125" y="7.5">1</text><text text-anchor="middle" x="61.3125" y="589">1</text><text text-anchor="middle" x="163.9375" y="7.5">2</text><text text-anchor="middle" x="163.9375" y="589">2</text><text text-anchor="middle" x="266.5625" y="7.5">3</text><text text-anchor="middle" x="266.5625" y="589">3</text><text text-anchor="middle" x="369.1875" y="7.5">4</text><text text-anchor="middle" x="369.1875" y="589">4</text><text text-anchor="middle" x="471.8125" y="7.5">5</text><text text-anchor="middle" x="471.8125" y="589">5</text><text text-anchor="middle" x="574.4375" y="7.5">6</text><text text-anchor="middle" x="574.4375" y="589">6</text><text text-anchor="middle" x="677.0625" y="7.5">7</text><text text-anchor="middle" x="677.0625" y="589">7</text><text text-anchor="middle" x="779.6875" y="7.5">8</text><text text-anchor="middle" x="779.6875" y="589">8</text><text text-anchor="middle" x="5" y="58.833333333333336">A</text><text text-anchor="middle" x="836" y="58.833333333333336">A</text><text text-anchor="middle" x="5" y="154.5">B</text><text text-anchor="middle" x="836" y="154.5">B</text><text text-anchor="middle" x="5" y="250.16666666666666">C</text><text text-anchor="middle" x="836" y="250.16666666666666">C</text><text text-anchor="middle" x="5" y="345.8333333333333">D</text><text text-anchor="middle" x="836" y="345.8333333333333">D</text><text text-anchor="middle" x="5" y="441.5">E</text><text text-anchor="middle" x="836" y="441.5">E</text><text text-anchor="middle" x="5" y="537.1666666666666">F</text><text text-anchor="middle" x="836" y="537.1666666666666">F</text></g><g fill="none" stroke="#000000" stroke-width="0.5"><rect height="62" width="180" x="651" y="522" /><line x1="651" x2="831" y1="532" y2="532" /><line x1="651" x2="831" y1="544" y2="544" /><line x1="651" x2="831" y1="558" y2="558" /><line x1="651" x2="831" y1="568" y2="568" /><line x1="696" x2="696" y1="544" y2="558" /><line x1="741" x2="741" y1="544" y2="558" /><line x1="781" x2="781" y1="544" y2="558" /><line x1="696" x2="696" y1="558" y2="568" /><line x1="741" x2="741" y1="558" y2="568" /><line x1="786" x2="786" y1="558" y2="568" /><line x1="806" x2="806" y1="568" y2="584" /></g><g fill="#000000" font-family="DejaVu Sans, Arial, sans-serif" stroke="none"><text font-size="2.6" x="654" y="526.5">GENERIC REFINERY - GULF COAST</text><text font-size="2.9" font-weight="bold" x="654" y="530.3">100 KBPSD CRUDE &amp; VACUUM DISTILLATION UNIT</text><text font-size="4.2" font-weight="bold" text-anchor="middle" x="741.0" y="537.5">PIPING &amp; INSTRUMENT DIAGRAM</text><text font-size="3.2" text-anchor="middle" x="741.0" y="542.3">ATMOSPHERIC HEATER H-101 - FIRING &amp; AIR SYSTEM</text><text font-size="2.0" x="652.5" y="547.5">DISCIPLINE</text><text font-size="3.3" text-anchor="middle" x="673.5" y="554.5">PROCESS</text><text font-size="2.0" x="697.5" y="547.5">STAGE</text><text font-size="3.3" text-anchor="middle" x="718.5" y="554.5">FEED</text><text font-size="2.0" x="742.5" y="547.5">SCALE</text><text font-size="3.3" text-anchor="middle" x="761.0" y="554.5">NTS</text><text font-size="2.0" x="782.5" y="547.5">SHEET</text><text font-size="3.3" text-anchor="middle" x="806.0" y="554.5">6 OF 17</text><text font-size="2.0" x="652.5" y="561">DRAWN</text><text font-size="2.8" x="652.5" y="566">CLAUDE CODE</text><text font-size="2.0" x="697.5" y="561">CHECKED</text><text font-size="2.8" x="697.5" y="566">-</text><text font-size="2.0" x="742.5" y="561">APPROVED</text><text font-size="2.8" x="742.5" y="566">-</text><text font-size="2.0" x="787.5" y="561">DATE</text><text font-size="2.8" x="787.5" y="566">2026-10-02</text><text font-size="2.0" x="652.5" y="571">DRAWING NUMBER</text><text font-size="5.0" font-weight="bold" text-anchor="middle" x="728.5" y="580">CFU-100-PR-PID-005</text><text font-size="2.0" x="807.5" y="571">REV</text><text font-size="6.0" font-weight="bold" text-anchor="middle" x="818.5" y="580">A</text></g><g fill="none" stroke="#000000" stroke-width="0.35"><rect height="10" width="180" x="651" y="512" /><line x1="651" x2="831" y1="517" y2="517" /><line x1="663" x2="663" y1="512" y2="522" /><line x1="691" x2="691" y1="512" y2="522" /></g><g fill="#000000" font-family="DejaVu Sans, Arial, sans-serif" font-size="2.4" stroke="none"><text x="653" y="520.5">A</text><text x="665" y="520.5">2026-10-02</text><text x="693" y="520.5">Issued for review (FEED)</text><text x="653" y="515.5">REV</text><text x="665" y="515.5">DATE</text><text x="693" y="515.5">DESCRIPTION</text></g><g fill="#000000" font-family="DejaVu Sans, Arial, sans-serif" font-size="2.5"><text font-size="3.0" font-weight="bold" x="651" y="476.6">NOTES</text><text x="651" y="480.20000000000005">1. Burner management per API 556 / NFPA 85: purge, light-off and trip sequences in BMS (SIS logic).</text><text x="651" y="483.8">2. Main fuel SSOVs XV-1021/1022 with vent XV (double block &amp; bleed); all fail closed (vent fails open).</text><text x="651" y="487.40000000000003">3. Fuel / air cross-limiting: AIC-1022 trims FIC-1025 set point; PIC-1021 low-select vs. minimum fire.</text><text x="651" y="491.0">4. Snuffing steam manifold valves located &gt;= 15 m from heater (API 560); one per cell + header boxes.</text><text x="651" y="494.6">5. Ducts shown double-line; K-101A/B and K-102A/B are 2 x 100 % (one fan symbol shown per pair).</text><text x="651" y="498.20000000000005">6. Line numbers: &lt;NPS&gt;-&lt;fluid&gt;-&lt;area&gt;-&lt;seq&gt;-&lt;class&gt;-&lt;insulation&gt; per CONVENTIONS; see line list CFU-000-PI-LL-001.</text><text x="651" y="501.8">7. All vents / drains 3/4" min. with blind or cap; HPV/LPD to piping specification. Valve sizes = line size UNO.</text><text x="651" y="505.40000000000003">8. Instrument tags per ISA-5.1; index CFU-000-IC-IDX-001. SIS functions per SRS (SIF tags shown in interlocks).</text></g><g fill="none" font-family="DejaVu Sans, Arial, sans-serif" stroke="#000000" stroke-width="0.35"><g fill="none" stroke="#000000" stroke-linejoin="miter" stroke-width="0.55"><polyline points="555,115 555,78 430,78" stroke="#000" stroke-width="3.0" /><polyline points="555,115 555,78 430,78" stroke="#fff" stroke-width="2.1" /><polyline points="370,78 335,78" stroke="#000" stroke-width="3.0" /><polyline points="370,78 335,78" stroke="#fff" stroke-width="2.1" /><polyline points="325,78 290,78 290,38" stroke="#000" stroke-width="3.0" /><polyline points="325,78 290,78 290,38" stroke="#fff" stroke-width="2.1" /><polyline points="270,140 325,140" stroke="#000" stroke-width="3.0" /><polyline points="270,140 325,140" stroke="#fff" stroke-width="2.1" /><polyline points="335,140 390,140 390,100" stroke="#000" stroke-width="3.0" /><polyline points="335,140 390,140 390,100" stroke="#fff" stroke-width="2.1" /><polyline points="415,100 415,338 470.0,338" stroke="#000" stroke-width="3.0" /><polyline points="415,100 415,338 470.0,338" stroke="#fff" stroke-width="2.1" /><polyline points="790,290 700,290 700,250 640.0,250" stroke-width="0.38" /><polyline points="700,290 640.0,290" stroke-width="0.38" /><polyline points="50,430.0 275,430.0" stroke-width="0.38" /><polyline points="140,430.0 140,454.0 110,454.0" stroke-width="0.38" /><line stroke-width="0.38" x1="193.2" x2="193.2" y1="430.0" y2="426.0" /><polyline points="186.2,430.0 186.2,438.5 228.8,438.5 228.8,430.0" stroke-width="0.38" /><polyline points="275,430.0 455,430.0 455,360 636.0,360" stroke-width="0.38" /><polyline points="480.625,360 480.625,345.0" stroke-width="0.55" /><polyline points="483.625,352 483.625,345.0" stroke-width="0.38" /><polyline points="501.875,360 501.875,345.0" stroke-width="0.55" /><polyline points="504.875,352 504.875,345.0" stroke-width="0.38" /><polyline points="523.125,360 523.125,345.0" stroke-width="0.55" /><polyline points="526.125,352 526.125,345.0" stroke-width="0.38" /><polyline points="544.375,360 544.375,345.0" stroke-width="0.55" /><polyline points="547.375,352 547.375,345.0" stroke-width="0.38" /><polyline points="565.625,360 565.625,345.0" stroke-width="0.55" /><polyline points="568.625,352 568.625,345.0" stroke-width="0.38" /><polyline points="586.875,360 586.875,345.0" stroke-width="0.55" /><polyline points="589.875,352 589.875,345.0" stroke-width="0.38" /><polyline points="608.125,360 608.125,345.0" stroke-width="0.55" /><polyline points="611.125,352 611.125,345.0" stroke-width="0.38" /><polyline points="629.375,360 629.375,345.0" stroke-width="0.55" /><polyline points="632.375,352 632.375,345.0" stroke-width="0.38" /><polyline points="50,470.0 445,470.0 445,352 639.0,352" stroke-width="0.38" /></g><g fill="none" stroke="#000000" stroke-width="0.25"><polyline points="360,142.4 360,155.4" stroke-width="0.3" /><polyline points="355.4,160 345,160 345,175 339.6,175" stroke-dasharray="1.6,0.9" /><polyline points="330.4,175 305,175 305,141.8" stroke-dasharray="1.6,0.9" /><polyline points="640.0,168 650,168 650,140 655.4,140" stroke-width="0.3" /><polyline points="664.6,140 680.4,140" stroke-dasharray="1.6,0.9" /><polyline points="640.0,190 655.4,190" stroke-width="0.3" /><polyline points="660,190 685,190" stroke-dasharray="1.6,0.9" /><polyline points="689.6,190 706,190" stroke-dasharray="1.6,0.9" /><polyline points="640.0,225 655.4,225" stroke-width="0.3" /><polyline points="660,225 685,225" stroke-dasharray="1.6,0.9" /><polyline points="600,125 650,125 650,105 655.4,105" stroke-width="0.3" /><polyline points="560,345.0 560,363.4" stroke-width="0.3" /><polyline points="564.6,368 580.4,368" stroke-dasharray="1.6,0.9" /><polyline points="92,430.0 92,420.0" stroke-width="0.3" /><polyline points="255,430.0 255,416.6" stroke-width="0.3" /><polyline points="250.4,412.0 240,412.0 240,400.0 234.6,400.0" stroke-dasharray="1.6,0.9" /><polyline points="225.4,400.0 207.5,400.0 207.5,419.2" stroke-dasharray="1.6,0.9" /><polyline points="300,430.0 300,443.4" stroke-width="0.3" /><polyline points="300,448.0 325,448.0" stroke-dasharray="1.6,0.9" /><polyline points="329.6,448.0 345.4,448.0" stroke-dasharray="1.6,0.9" /><polyline points="120,364 120,420.2" stroke-dasharray="1.6,0.9" /><polyline points="160,364 160,420.2" stroke-dasharray="1.6,0.9" /><polyline points="146,364 146,412 152,412 152,434.0" stroke-dasharray="1.6,0.9" /><polyline points="60,364 60,458 125,458 125,460.2" stroke-dasharray="1.6,0.9" /></g><g fill="none" stroke="#000000" stroke-width="0.5"><rect height="24.299999999999997" stroke-width="0.35" width="80" x="18" y="17" /><rect height="18.7" stroke-width="0.35" width="80" x="100.5" y="17" /><rect height="15.899999999999999" stroke-width="0.35" width="80" x="183.0" y="17" /><rect height="15.899999999999999" stroke-width="0.35" width="80" x="265.5" y="17" /><rect height="170.0" stroke-width="0.7" width="170.0" x="470.0" y="160.0" /><line stroke-dasharray="3,1.5" stroke-width="0.3" x1="555.0" x2="555.0" y1="185.0" y2="330.0" /><rect height="45.0" stroke-width="0.6" width="90" x="510" y="115" /><polygon points="478.425,330.0 482.825,330.0 480.625,325.0" stroke-width="0.35" /><polygon points="499.675,330.0 504.075,330.0 501.875,325.0" stroke-width="0.35" /><polygon points="520.925,330.0 525.325,330.0 523.125,325.0" stroke-width="0.35" /><polygon points="542.175,330.0 546.575,330.0 544.375,325.0" stroke-width="0.35" /><polygon points="563.425,330.0 567.825,330.0 565.625,325.0" stroke-width="0.35" /><polygon points="584.675,330.0 589.075,330.0 586.875,325.0" stroke-width="0.35" /><polygon points="605.925,330.0 610.325,330.0 608.125,325.0" stroke-width="0.35" /><polygon points="627.175,330.0 631.575,330.0 629.375,325.0" stroke-width="0.35" /><rect height="15" stroke-width="0.4" width="170.0" x="470.0" y="330.0" /><rect height="35" stroke-width="0.5" width="60" x="370" y="65" /><line stroke-width="0.3" x1="370" x2="430" y1="65" y2="100" /><circle cx="330" cy="78" r="5" /><line stroke-width="0.3" x1="330" x2="334.25" y1="78" y2="78.0" /><line stroke-width="0.3" x1="330" x2="330.0" y1="78" y2="82.25" /><line stroke-width="0.3" x1="330" x2="325.75" y1="78" y2="78.0" /><line stroke-width="0.3" x1="330" x2="330.0" y1="78" y2="73.75" /><circle cx="330" cy="140" r="5" /><line stroke-width="0.3" x1="330" x2="334.25" y1="140" y2="140.0" /><line stroke-width="0.3" x1="330" x2="330.0" y1="140" y2="144.25" /><line stroke-width="0.3" x1="330" x2="325.75" y1="140" y2="140.0" /><line stroke-width="0.3" x1="330" x2="330.0" y1="140" y2="135.75" /><rect height="94" stroke-width="0.5" width="140" x="40" y="270" /></g><g fill="white" stroke="#000000" stroke-width="0.35"><polygon fill="#000000" points="430,78 433.0,76.4 433.0,79.6" stroke="#000000" stroke-width="0.2" /><polygon fill="#000000" points="335,78 338.0,76.4 338.0,79.6" stroke="#000000" stroke-width="0.2" /><polygon fill="#000000" points="290,38 291.6,41.0 288.4,41.0" stroke="#000000" stroke-width="0.2" /><circle cx="290" cy="55" fill="white" r="1.8" /><line x1="288.7" x2="291.3" y1="53.7" y2="56.3" /><polygon fill="#000000" points="325,140 322.0,141.6 322.0,138.4" stroke="#000000" stroke-width="0.2" /><circle cx="305" cy="140" fill="white" r="1.8" /><line x1="303.7" x2="306.3" y1="141.3" y2="138.7" /><polygon fill="#000000" points="390,100 391.6,103.0 388.4,103.0" stroke="#000000" stroke-width="0.2" /><polygon fill="#000000" points="470.0,338 467.0,339.6 467.0,336.4" stroke="#000000" stroke-width="0.2" /><line stroke-width="0.45" x1="359.4" x2="359.4" y1="137.6" y2="142.4" /><line stroke-width="0.45" x1="360.6" x2="360.6" y1="137.6" y2="142.4" /><circle cx="360" cy="160" fill="white" r="4.6" /><rect fill="white" height="9.2" width="9.2" x="330.4" y="170.4" /><circle cx="335" cy="175" fill="white" r="4.6" /><line stroke-width="0.3" x1="330.4" x2="339.6" y1="175" y2="175" /><circle cx="660" cy="140" fill="white" r="4.6" /><rect fill="white" height="9.2" width="9.2" x="680.4" y="135.4" /><circle cx="685" cy="140" fill="white" r="4.6" /><line stroke-width="0.3" x1="680.4" x2="689.6" y1="140" y2="140" /><circle cx="660" cy="190" fill="white" r="4.6" /><rect fill="white" height="9.2" width="9.2" x="680.4" y="185.4" /><circle cx="685" cy="190" fill="white" r="4.6" /><line stroke-width="0.3" x1="680.4" x2="689.6" y1="190" y2="190" /><circle cx="710" cy="190" fill="white" r="4.0" /><circle cx="660" cy="225" fill="white" r="4.6" /><rect fill="white" height="9.2" width="9.2" x="680.4" y="220.4" /><polygon fill="white" points="685,220.4 689.6,225 685,229.6 680.4,225" /><line stroke-width="0.3" x1="682.148" x2="687.852" y1="225" y2="225" /><rect fill="white" height="9.2" width="9.2" x="655.4" y="100.4" /><circle cx="660" cy="105" fill="white" r="4.6" /><line stroke-width="0.3" x1="655.4" x2="664.6" y1="105" y2="105" /><circle cx="560" cy="368" fill="white" r="4.6" /><rect fill="white" height="9.2" width="9.2" x="580.4" y="363.4" /><polygon fill="white" points="585,363.4 589.6,368 585,372.6 580.4,368" /><line stroke-width="0.3" x1="582.148" x2="587.852" y1="368" y2="368" /><polygon fill="white" points="821,285.25 793.5,285.25 790,290 793.5,294.75 821,294.75" stroke-width="0.45" /><polygon fill="#000000" points="640.0,250 642.6,249.0 642.6,251.0" stroke="#000000" stroke-width="0.2" /><polygon fill="#000000" points="640.0,290 642.6,289.0 642.6,291.0" stroke="#000000" stroke-width="0.2" /><polygon fill="white" points="757.4,288.4 757.4,291.6 760,290" /><polygon fill="white" points="762.6,288.4 762.6,291.6 760,290" /><polygon fill="white" points="19,425.25 46.5,425.25 50,430.0 46.5,434.75 19,434.75" stroke-width="0.45" /><rect fill="white" height="3.0" width="4.4" x="75.8" y="428.5" /><line stroke-dasharray="0.8,0.5" x1="75.8" x2="80.2" y1="431.5" y2="428.5" /><circle cx="92" cy="416.0" fill="white" r="4.0" /><polygon fill="white" points="101.4,428.4 101.4,431.6 104,430.0" /><polygon fill="white" points="106.6,428.4 106.6,431.6 104,430.0" /><polygon fill="white" points="117.4,428.4 117.4,431.6 120,430.0" /><polygon fill="white" points="122.6,428.4 122.6,431.6 120,430.0" /><circle cx="120" cy="430.0" fill="white" r="0.95" /><line stroke-width="0.35" x1="120" x2="120" y1="429.0" y2="425.8" /><rect fill="white" height="3.2" width="4.8" x="117.6" y="422.6" /><polygon fill="white" points="157.4,428.4 157.4,431.6 160,430.0" /><polygon fill="white" points="162.6,428.4 162.6,431.6 160,430.0" /><circle cx="160" cy="430.0" fill="white" r="0.95" /><line stroke-width="0.35" x1="160" x2="160" y1="429.0" y2="425.8" /><rect fill="white" height="3.2" width="4.8" x="157.6" y="422.6" /><polygon fill="#000000" points="110,454.0 112.6,453.0 112.6,455.0" stroke="#000000" stroke-width="0.2" /><circle cx="140" cy="430.0" fill="#000000" r="0.6" stroke="none" /><polygon fill="white" points="138.4,439.4 141.6,439.4 140,442.0" /><polygon fill="white" points="138.4,444.6 141.6,444.6 140,442.0" /><circle cx="140" cy="442.0" fill="white" r="0.95" /><line stroke-width="0.35" x1="141.0" x2="144.2" y1="442.0" y2="442.0" /><rect fill="white" height="3.2" width="4.8" x="144.2" y="440.4" /><polygon fill="white" points="186.9,428.4 186.9,431.6 189.5,430.0" /><polygon fill="white" points="192.1,428.4 192.1,431.6 189.5,430.0" /><polygon fill="white" points="222.9,428.4 222.9,431.6 225.5,430.0" /><polygon fill="white" points="228.1,428.4 228.1,431.6 225.5,430.0" /><polygon fill="white" points="200.70000000000002,428.2 203.9,429.0 203.9,431.0 200.70000000000002,431.8" /><polygon fill="white" points="211.1,429.0 214.29999999999998,428.2 214.29999999999998,431.8 211.1,431.0" /><polygon fill="white" points="204.9,428.4 204.9,431.6 207.5,430.0" /><polygon fill="white" points="210.1,428.4 210.1,431.6 207.5,430.0" /><circle cx="207.5" cy="430.0" fill="#000000" r="0.75" stroke="none" /><line stroke-width="0.35" x1="207.5" x2="207.5" y1="429.0" y2="425.8" /><path d="M 204.9,425.8 A 2.6,2.6 0 0 1 210.1,425.8 Z" fill="white" /><polygon fill="white" points="192.2,426.3 194.2,426.3 193.2,427.8" /><polygon fill="white" points="192.2,429.3 194.2,429.3 193.2,427.8" /><line stroke-width="0.6" x1="194.5" x2="191.89999999999998" y1="426.0" y2="426.0" /><circle cx="186.2" cy="430.0" fill="#000000" r="0.6" stroke="none" /><circle cx="228.8" cy="430.0" fill="#000000" r="0.6" stroke="none" /><polygon fill="white" points="204.9,436.9 204.9,440.1 207.5,438.5" /><polygon fill="white" points="210.1,436.9 210.1,440.1 207.5,438.5" /><circle cx="207.5" cy="438.5" fill="#000000" r="0.75" stroke="none" /><circle cx="255" cy="412.0" fill="white" r="4.6" /><rect fill="white" height="9.2" width="9.2" x="225.4" y="395.4" /><circle cx="230" cy="400.0" fill="white" r="4.6" /><line stroke-width="0.3" x1="225.4" x2="234.6" y1="400.0" y2="400.0" /><circle cx="300" cy="448.0" fill="white" r="4.6" /><rect fill="white" height="9.2" width="9.2" x="320.4" y="443.4" /><polygon fill="white" points="325,443.4 329.6,448.0 325,452.6 320.4,448.0" /><line stroke-width="0.3" x1="322.148" x2="327.852" y1="448.0" y2="448.0" /><rect fill="white" height="9.2" width="9.2" x="345.4" y="443.4" /><polygon fill="white" points="350,443.4 354.6,448.0 350,452.6 345.4,448.0" /><line stroke-width="0.3" x1="347.148" x2="352.852" y1="448.0" y2="448.0" /><polygon fill="white" points="19,465.25 46.5,465.25 50,470.0 46.5,474.75 19,474.75" stroke-width="0.45" /><polygon fill="white" points="77.4,468.4 77.4,471.6 80,470.0" /><polygon fill="white" points="82.6,468.4 82.6,471.6 80,470.0" /><polygon fill="white" points="97.4,468.4 97.4,471.6 100,470.0" /><polygon fill="white" points="102.6,468.4 102.6,471.6 100,470.0" /><circle cx="100" cy="470.0" fill="#000000" r="0.75" stroke="none" /><line stroke-width="0.35" x1="100" x2="100" y1="469.0" y2="465.8" /><path d="M 97.4,465.8 A 2.6,2.6 0 0 1 102.6,465.8 Z" fill="white" /><polygon fill="white" points="122.4,468.4 122.4,471.6 125,470.0" /><polygon fill="white" points="127.6,468.4 127.6,471.6 125,470.0" /><circle cx="125" cy="470.0" fill="white" r="0.95" /><line stroke-width="0.35" x1="125" x2="125" y1="469.0" y2="465.8" /><rect fill="white" height="3.2" width="4.8" x="122.6" y="462.6" /><polygon fill="white" points="50,281.4 53.6,285 50,288.6 46.4,285" /><polygon fill="white" points="50,295.4 53.6,299 50,302.6 46.4,299" /><polygon fill="white" points="50,309.4 53.6,313 50,316.6 46.4,313" /><polygon fill="white" points="50,323.4 53.6,327 50,330.6 46.4,327" /><polygon fill="white" points="50,337.4 53.6,341 50,344.6 46.4,341" /><polygon fill="white" points="50,351.4 53.6,355 50,358.6 46.4,355" /></g><g fill="#000000" font-family="DejaVu Sans, Arial, sans-serif" stroke="none"><text font-size="3.0" font-style="normal" font-weight="bold" text-anchor="middle" x="58.0" y="21.4">H-101</text><text font-size="2.1" font-style="normal" font-weight="normal" text-anchor="start" x="19.5" y="25.6">Atmospheric crude charge heater</text><text font-size="2.1" font-style="normal" font-weight="normal" text-anchor="start" x="19.5" y="28.400000000000002">60.7 MW abs. / 67.4 MW fired; 2-cell cabin, 8 passes, 128 rad.</text><text font-size="2.1" font-style="normal" font-weight="normal" text-anchor="start" x="19.5" y="31.200000000000003">tubes 6" x 18.3 m</text><text font-size="2.1" font-style="normal" font-weight="normal" text-anchor="start" x="19.5" y="34.0">DESIGN 38.5 barg / 455 C; CA 3 mm</text><text font-size="2.1" font-style="normal" font-weight="normal" text-anchor="start" x="19.5" y="36.8">DUTY 60.68 MW</text><text font-size="2.1" font-style="normal" font-weight="normal" text-anchor="start" x="19.5" y="39.6">MAT'L Tubes A335 P9 (9Cr-1Mo); convection P5 / CS studded</text><text font-size="3.0" font-style="normal" font-weight="bold" text-anchor="middle" x="140.5" y="21.4">E-120</text><text font-size="2.1" font-style="normal" font-weight="normal" text-anchor="start" x="102.0" y="25.6">H-101 cast-iron/glass-tube air preheater</text><text font-size="2.1" font-style="normal" font-weight="normal" text-anchor="start" x="102.0" y="28.400000000000002">Flue gas 380 -&gt; 160 C</text><text font-size="2.1" font-style="normal" font-weight="normal" text-anchor="start" x="102.0" y="31.200000000000003">DESIGN None barg / 450 C</text><text font-size="2.1" font-style="normal" font-weight="normal" text-anchor="start" x="102.0" y="34.0">MAT'L Cast iron / borosilicate</text><text font-size="3.0" font-style="normal" font-weight="bold" text-anchor="middle" x="223.0" y="21.4">K-101A/B</text><text font-size="2.1" font-style="normal" font-weight="normal" text-anchor="start" x="184.5" y="25.6">H-101 forced-draft fan</text><text font-size="2.1" font-style="normal" font-weight="normal" text-anchor="start" x="184.5" y="28.400000000000002">96 t/h flue gas</text><text font-size="2.1" font-style="normal" font-weight="normal" text-anchor="start" x="184.5" y="31.200000000000003">MOTOR 90 kW</text><text font-size="3.0" font-style="normal" font-weight="bold" text-anchor="middle" x="305.5" y="21.4">K-102A/B</text><text font-size="2.1" font-style="normal" font-weight="normal" text-anchor="start" x="267.0" y="25.6">H-101 induced-draft fan</text><text font-size="2.1" font-style="normal" font-weight="normal" text-anchor="start" x="267.0" y="28.400000000000002">96 t/h flue gas</text><text font-size="2.1" font-style="normal" font-weight="normal" text-anchor="start" x="267.0" y="31.200000000000003">MOTOR 200 kW</text><text font-size="2.2" font-style="normal" font-weight="normal" text-anchor="middle" x="555.0" y="119.0">CONVECTION</text><text font-size="3.2" font-style="normal" font-weight="bold" text-anchor="start" x="474.0" y="322.0">H-101</text><text font-size="2.4" font-style="normal" font-weight="normal" text-anchor="middle" x="555" y="200">RADIANT</text><text font-size="2.1" font-style="normal" font-weight="normal" text-anchor="middle" x="555.0" y="340.0">WINDBOX / AIR PLENUM</text><text font-size="2.6" font-style="normal" font-weight="bold" text-anchor="middle" x="400" y="61">E-120 (APH)</text><text font-size="2.1" font-style="normal" font-weight="normal" text-anchor="middle" x="495" y="75">FLUE GAS</text><text font-size="2.2" font-style="normal" font-weight="bold" text-anchor="middle" x="330" y="89">K-102A/B (ID)</text><text font-size="2.2" font-style="normal" font-weight="bold" text-anchor="start" x="300" y="40">TO STACK</text><text font-size="2.0" font-style="normal" font-weight="normal" text-anchor="end" x="287" y="56">STACK DAMPER</text><text font-size="2.2" font-style="normal" font-weight="bold" text-anchor="middle" x="330" y="151">K-101A/B (FD)</text><text font-size="2.1" font-style="normal" font-weight="normal" text-anchor="end" x="266" y="141">AIR</text><text font-size="2.0" font-style="normal" font-weight="normal" text-anchor="middle" x="305" y="135">INLET VANES</text><text font-size="2.1" font-style="normal" font-weight="normal" text-anchor="start" transform="rotate(-90,421,250)" x="421" y="250">PREHEATED AIR</text><text font-size="2.2" font-style="normal" font-weight="bold" text-anchor="middle" x="360" y="159.25">FT</text><text font-size="2.0" font-style="normal" font-weight="normal" text-anchor="middle" x="360" y="162.75">1025</text><text font-size="2.2" font-style="normal" font-weight="bold" text-anchor="middle" x="335" y="174.25">FIC</text><text font-size="2.0" font-style="normal" font-weight="normal" text-anchor="middle" x="335" y="177.75">1025</text><text font-size="2.0" font-style="normal" font-weight="normal" text-anchor="middle" x="330" y="183">SP FROM AIC-1022</text><text font-size="2.2" font-style="normal" font-weight="bold" text-anchor="middle" x="660" y="139.25">AT</text><text font-size="2.0" font-style="normal" font-weight="normal" text-anchor="middle" x="660" y="142.75">1022</text><text font-size="2.2" font-style="normal" font-weight="bold" text-anchor="middle" x="685" y="139.25">AIC</text><text font-size="2.0" font-style="normal" font-weight="normal" text-anchor="middle" x="685" y="142.75">1022</text><text font-size="2.0" font-style="normal" font-weight="normal" text-anchor="start" x="691" y="136">SP TRIM TO FIC-1025</text><text font-size="2.2" font-style="normal" font-weight="bold" text-anchor="middle" x="660" y="189.25">PT</text><text font-size="2.0" font-style="normal" font-weight="normal" text-anchor="middle" x="660" y="192.75">1023</text><text font-size="2.2" font-style="normal" font-weight="bold" text-anchor="middle" x="685" y="189.25">PIC</text><text font-size="2.0" font-style="normal" font-weight="normal" text-anchor="middle" x="685" y="192.75">1023</text><text font-size="2.0" font-style="normal" font-weight="normal" text-anchor="start" x="691" y="186">-2.5 mmH2O</text><text font-size="2.2" font-style="normal" font-weight="bold" text-anchor="middle" x="710" y="189.25">PY</text><text font-size="2.0" font-style="normal" font-weight="normal" text-anchor="middle" x="710" y="192.75">1023</text><text font-size="2.0" font-style="normal" font-weight="normal" text-anchor="start" x="716" y="189">TO K-102A/B VSD</text><text font-size="2.0" font-style="normal" font-weight="normal" text-anchor="start" x="716" y="192">&amp; PV-1023 STACK DAMPER</text><text font-size="2.2" font-style="normal" font-weight="bold" text-anchor="middle" x="660" y="224.25">PT</text><text font-size="1.5" font-style="normal" font-weight="normal" text-anchor="middle" x="660" y="227.75">1029A/B/C</text><text font-size="1.95" font-style="normal" font-weight="bold" text-anchor="middle" x="685" y="224.25">PZHH</text><text font-size="2.0" font-style="normal" font-weight="normal" text-anchor="middle" x="685" y="227.75">1029</text><text font-size="2.0" font-style="normal" font-weight="normal" text-anchor="start" x="690.5" y="221.5">2oo3</text><text font-size="2.0" font-style="normal" font-weight="normal" text-anchor="start" x="691" y="232">TO SIF-105</text><text font-size="2.2" font-style="normal" font-weight="bold" text-anchor="middle" x="660" y="104.25">TI</text><text font-size="2.0" font-style="normal" font-weight="normal" text-anchor="middle" x="660" y="107.75">1228</text><text font-size="2.2" font-style="normal" font-weight="bold" text-anchor="middle" x="560" y="367.25">BS</text><text font-size="2.0" font-style="normal" font-weight="normal" text-anchor="middle" x="560" y="370.75">1028</text><text font-size="1.95" font-style="normal" font-weight="bold" text-anchor="middle" x="585" y="367.25">BZLL</text><text font-size="2.0" font-style="normal" font-weight="normal" text-anchor="middle" x="585" y="370.75">1028</text><text font-size="2.0" font-style="normal" font-weight="normal" text-anchor="start" x="591" y="369">TO SIF-104</text><text font-size="2.1" font-style="normal" font-weight="bold" text-anchor="middle" x="807.25" y="289.4">LP STEAM HEADER</text><text font-size="2.0" font-style="normal" font-weight="normal" text-anchor="middle" x="807.25" y="293.1">CFU-900-PR-PID-016</text><text font-size="2.0" font-style="normal" font-weight="normal" text-anchor="middle" x="745.0" y="288.9">10"-LS-100-082-S1-H</text><text font-size="2.0" font-style="normal" font-weight="normal" text-anchor="middle" x="760" y="294.6">SNUFFING</text><text font-size="2.0" font-style="normal" font-weight="normal" text-anchor="end" x="698" y="246">SNUFFING STEAM (CELLS / HEADER BOXES)</text><text font-size="2.1" font-style="normal" font-weight="bold" text-anchor="middle" x="32.75" y="429.4">FUEL GAS FROM D-103</text><text font-size="2.0" font-style="normal" font-weight="normal" text-anchor="middle" x="32.75" y="433.1">CFU-900-PR-PID-016</text><text font-size="2.0" font-style="normal" font-weight="normal" text-anchor="middle" x="79.25" y="428.9">8"-FG-100-078-A1-N</text><text font-size="2.2" font-style="normal" font-weight="bold" text-anchor="middle" x="92" y="415.25">PI</text><text font-size="2.0" font-style="normal" font-weight="normal" text-anchor="middle" x="92" y="418.75">1229</text><text font-size="2.0" font-style="normal" font-weight="bold" text-anchor="middle" x="120" y="425.1">S</text><text font-size="2.2" font-style="normal" font-weight="bold" text-anchor="start" x="123" y="423.4">XV-1021</text><text font-size="2.0" font-style="normal" font-weight="normal" text-anchor="start" x="123" y="426.2">FC</text><text font-size="2.0" font-style="normal" font-weight="bold" text-anchor="middle" x="160" y="425.1">S</text><text font-size="2.2" font-style="normal" font-weight="bold" text-anchor="start" x="163" y="423.4">XV-1022</text><text font-size="2.0" font-style="normal" font-weight="normal" text-anchor="start" x="163" y="426.2">FC</text><text font-size="2.0" font-style="normal" font-weight="normal" text-anchor="middle" x="125.0" y="456.9">3"-FL-100-081-A1-N</text><text font-size="2.0" font-style="normal" font-weight="bold" text-anchor="middle" x="146.6" y="442.8">S</text><text font-size="2.2" font-style="normal" font-weight="bold" text-anchor="start" x="146" y="442.0">XV-1230</text><text font-size="2.0" font-style="normal" font-weight="normal" text-anchor="start" x="146" y="444.4">FO</text><text font-size="2.0" font-style="normal" font-weight="normal" text-anchor="end" x="108" y="455.0">TO FLARE</text><text font-size="2.2" font-style="normal" font-weight="bold" text-anchor="start" x="211" y="423.4">PV-1021</text><text font-size="2.0" font-style="normal" font-weight="normal" text-anchor="start" x="211" y="426.2">FC</text><text font-size="2.2" font-style="normal" font-weight="bold" text-anchor="middle" x="255" y="411.25">PT</text><text font-size="2.0" font-style="normal" font-weight="normal" text-anchor="middle" x="255" y="414.75">1021</text><text font-size="2.2" font-style="normal" font-weight="bold" text-anchor="middle" x="230" y="399.25">PIC</text><text font-size="2.0" font-style="normal" font-weight="normal" text-anchor="middle" x="230" y="402.75">1021</text><text font-size="2.0" font-style="normal" font-weight="normal" text-anchor="end" x="225" y="390.0">SP FROM TIC-1020</text><text font-size="2.0" font-style="normal" font-weight="normal" text-anchor="end" x="225" y="392.6">(CFU-100-PR-PID-004)</text><text font-size="2.0" font-style="normal" font-weight="normal" text-anchor="middle" x="374.0" y="428.9">10"-FG-100-079-A1-N</text><text font-size="2.2" font-style="normal" font-weight="bold" text-anchor="middle" x="300" y="447.25">PT</text><text font-size="1.5" font-style="normal" font-weight="normal" text-anchor="middle" x="300" y="450.75">1027A/B/C</text><text font-size="1.95" font-style="normal" font-weight="bold" text-anchor="middle" x="325" y="447.25">PZLL</text><text font-size="2.0" font-style="normal" font-weight="normal" text-anchor="middle" x="325" y="450.75">1027</text><text font-size="2.0" font-style="normal" font-weight="normal" text-anchor="start" x="330.5" y="444.5">2oo3</text><text font-size="1.95" font-style="normal" font-weight="bold" text-anchor="middle" x="350" y="447.25">PZHH</text><text font-size="2.0" font-style="normal" font-weight="normal" text-anchor="middle" x="350" y="450.75">1027</text><text font-size="2.0" font-style="normal" font-weight="normal" text-anchor="start" x="356" y="458.0">TO SIF-102 / SIF-103</text><text font-size="2.1" font-style="normal" font-weight="bold" text-anchor="middle" x="32.75" y="469.4">PILOT GAS FROM D-103</text><text font-size="2.0" font-style="normal" font-weight="normal" text-anchor="middle" x="32.75" y="473.1">CFU-900-PR-PID-016</text><text font-size="2.0" font-style="normal" font-weight="normal" text-anchor="middle" x="247.5" y="468.9">1-1/2"-FG-100-080-A1-N</text><text font-size="2.2" font-style="normal" font-weight="bold" text-anchor="start" x="103" y="463.4">PCV-1233</text><text font-size="2.0" font-style="normal" font-weight="bold" text-anchor="middle" x="125" y="465.1">S</text><text font-size="2.2" font-style="normal" font-weight="bold" text-anchor="start" x="128" y="463.4">XV-1026</text><text font-size="2.0" font-style="normal" font-weight="normal" text-anchor="start" x="128" y="466.2">FC</text><text font-size="2.0" font-style="normal" font-weight="normal" text-anchor="start" x="642.0" y="361">MAIN GAS</text><text font-size="2.0" font-style="normal" font-weight="normal" text-anchor="start" x="642.0" y="353">PILOT GAS</text><text font-size="2.3" font-style="normal" font-weight="bold" text-anchor="middle" x="110.0" y="275">H-101 BMS / SIS (SIL-RATED PLC)</text><text font-size="2.4" font-style="normal" font-weight="bold" text-anchor="middle" x="50" y="285.9">I</text><text font-size="2.1" font-style="normal" font-weight="bold" text-anchor="start" x="56" y="284.0">SIF-101 (SIL 2)</text><text font-size="2.0" font-style="normal" font-weight="normal" text-anchor="start" x="56" y="287.0">H-101 low-low pass flow (any pass) -&gt; trip fue</text><text font-size="2.4" font-style="normal" font-weight="bold" text-anchor="middle" x="50" y="299.9">I</text><text font-size="2.1" font-style="normal" font-weight="bold" text-anchor="start" x="56" y="298.0">SIF-102 (SIL 1)</text><text font-size="2.0" font-style="normal" font-weight="normal" text-anchor="start" x="56" y="301.0">H-101 low-low fuel gas pressure -&gt; trip fuel</text><text font-size="2.4" font-style="normal" font-weight="bold" text-anchor="middle" x="50" y="313.9">I</text><text font-size="2.1" font-style="normal" font-weight="bold" text-anchor="start" x="56" y="312.0">SIF-103 (SIL 1)</text><text font-size="2.0" font-style="normal" font-weight="normal" text-anchor="start" x="56" y="315.0">H-101 high-high fuel gas pressure -&gt; trip fuel</text><text font-size="2.4" font-style="normal" font-weight="bold" text-anchor="middle" x="50" y="327.9">I</text><text font-size="2.1" font-style="normal" font-weight="bold" text-anchor="start" x="56" y="326.0">SIF-104 (SIL 2)</text><text font-size="2.0" font-style="normal" font-weight="normal" text-anchor="start" x="56" y="329.0">H-101 loss of flame (all burners) -&gt; trip fuel</text><text font-size="2.4" font-style="normal" font-weight="bold" text-anchor="middle" x="50" y="341.9">I</text><text font-size="2.1" font-style="normal" font-weight="bold" text-anchor="start" x="56" y="340.0">SIF-105 (SIL 1)</text><text font-size="2.0" font-style="normal" font-weight="normal" text-anchor="start" x="56" y="343.0">H-101 high-high arch pressure / loss of ID fan</text><text font-size="2.4" font-style="normal" font-weight="bold" text-anchor="middle" x="50" y="355.9">I</text><text font-size="2.1" font-style="normal" font-weight="bold" text-anchor="start" x="56" y="354.0">SIF-106 (SIL 1)</text><text font-size="2.0" font-style="normal" font-weight="normal" text-anchor="start" x="56" y="357.0">H-101 high-high COT -&gt; trip fuel</text><text font-size="2.0" font-style="normal" font-weight="normal" text-anchor="start" x="40" y="266">INPUTS: FZLL-1011..1018, TZHH-1020 (CFU-100-PR-PID-004); PZLL/PZHH-1027, BZLL-1028, PZHH-1029 (THIS SHEET)</text><text font-size="2.0" font-style="normal" font-weight="normal" text-anchor="start" x="185" y="369">TRIP: XV-1021/1022 + XV-1026 CLOSE, VENT XV OPEN</text></g></g></svg>